<svg width="53px" height="53px" viewBox="0 0 53 53" version="1.1" xmlns="http://www.w3.org/2000/svg" xmlns:xlink="http://www.w3.org/1999/xlink">
    <g id="Signup" stroke="none" stroke-width="1" fill="none" fill-rule="evenodd">
        <g id="Artboard-3" transform="translate(-45.000000, -40.000000)">
            <g id="Group-Copy-2" transform="translate(45.000000, 41.000000)">
                <path d="M4.69140446,46.9271586 L0,52 L0,41.3597123 L0.081181267,41.3862455 C0.0277266961,41.0375657 4.4531881e-17,40.6804112 0,40.3167808 L0,30 C-4.73447626e-16,26.1340068 3.13400675,23 7,23 L24,23 C27.8659932,23 31,26.1340068 31,30 L31,40.3167808 C31,44.1827741 27.8659932,47.3167808 24,47.3167808 L7,47.3167808 C6.19108672,47.3167808 5.41422024,47.1795721 4.69140446,46.9271586 Z M13.95,34.0185413 L13.95,37.0581389 L17.05,37.0581389 L17.05,34.0185413 L13.95,34.0185413 Z M7.75,34.0185413 L7.75,37.0581389 L10.85,37.0581389 L10.85,34.0185413 L7.75,34.0185413 Z M20.15,34.0185413 L20.15,37.0581389 L23.25,37.0581389 L23.25,34.0185413 L20.15,34.0185413 Z" id="Combined-Shape" fill="#084478"></path>
                <g id="Group" transform="translate(17.000000, 0.000000)">
                    <circle id="Oval-4" stroke="#084478" stroke-width="2" fill="#F8F8F8" cx="17.5" cy="17.5" r="17.5"></circle>
                    <circle id="Oval-6" fill="#084478" cx="17.5" cy="17.5" r="8.5"></circle>
                </g>
            </g>
        </g>
    </g>
</svg>
