
<svg width="53px" height="53px" viewBox="0 0 53 53" version="1.1" xmlns="http://www.w3.org/2000/svg" xmlns:xlink="http://www.w3.org/1999/xlink">
    <g id="Signup" stroke="none" stroke-width="1" fill="none" fill-rule="evenodd">
        <g id="Signup-Copy-12" transform="translate(-990.000000, -138.000000)">
            <g id="Group-2-Copy-2" transform="translate(990.000000, 139.000000)">
                <g id="Group-Copy-4">
                    <path d="M4.69140446,46.9271586 L0,52 L0,41.3597123 L0.081181267,41.3862455 C0.0277266961,41.0375657 4.4531881e-17,40.6804112 0,40.3167808 L0,30 C-4.73447626e-16,26.1340068 3.13400675,23 7,23 L24,23 C27.8659932,23 31,26.1340068 31,30 L31,40.3167808 C31,44.1827741 27.8659932,47.3167808 24,47.3167808 L7,47.3167808 C6.19108672,47.3167808 5.41422024,47.1795721 4.69140446,46.9271586 Z M13.95,34.0185413 L13.95,37.0581389 L17.05,37.0581389 L17.05,34.0185413 L13.95,34.0185413 Z M7.75,34.0185413 L7.75,37.0581389 L10.85,37.0581389 L10.85,34.0185413 L7.75,34.0185413 Z M20.15,34.0185413 L20.15,37.0581389 L23.25,37.0581389 L23.25,34.0185413 L20.15,34.0185413 Z" id="Combined-Shape" fill="#E74C3C"></path>
                    <g id="Group" transform="translate(17.000000, 0.000000)" fill="#F8F8F8" stroke="#E74C3C" stroke-width="2">
                        <circle id="Oval-4" cx="17.5" cy="17.5" r="17.5"></circle>
                    </g>
                </g>
            </g>
            <text id="+" transform="translate(1026.500000, 157.500000) rotate(45.000000) translate(-1026.500000, -157.500000) " font-family="Roboto-Medium, Roboto" font-size="30" font-weight="400" letter-spacing="1.66666675" fill="#E74C3C">
                <tspan x="1017" y="168">+</tspan>
            </text>
        </g>
    </g>
</svg>
