
<svg width="17px" height="24px" viewBox="0 0 17 24" version="1.1" xmlns="http://www.w3.org/2000/svg" xmlns:xlink="http://www.w3.org/1999/xlink">
    <g id="Signup" stroke="none" stroke-width="1" fill="none" fill-rule="evenodd">
        <g id="Signup-Copy-12" transform="translate(-206.000000, -22.000000)" fill="#6D6D6D">
            <path d="M215.861517,26.6422471 C215.026488,26.91435 214.424779,27.6815051 214.424779,28.5853659 C214.424779,29.7168761 215.367754,30.6341463 216.530973,30.6341463 C217.527272,30.6341463 218.362001,29.9612425 218.581051,29.0571656 C218.714938,29.4369339 218.787611,29.8443579 218.787611,30.2682927 C218.787611,32.3292577 217.070048,34 214.951327,34 C212.832607,34 211.115044,32.3292577 211.115044,30.2682927 C211.115044,28.2073276 212.832607,26.5365854 214.951327,26.5365854 C215.264936,26.5365854 215.569756,26.5731902 215.861517,26.6422471 Z M214.5,46 C208.833333,38.4549978 206,33.178402 206,30.1702128 C206,25.6579289 209.80558,22 214.5,22 C219.19442,22 223,25.6579289 223,30.1702128 C223,33.178402 220.166667,38.4549978 214.5,46 Z M214.650442,35.3170732 C217.600034,35.3170732 219.99115,32.9911378 219.99115,30.1219512 C219.99115,27.2527646 217.600034,24.9268293 214.650442,24.9268293 C211.700851,24.9268293 209.309735,27.2527646 209.309735,30.1219512 C209.309735,32.9911378 211.700851,35.3170732 214.650442,35.3170732 Z" id="Combined-Shape-Copy"></path>
        </g>
    </g>
</svg>
